<?xml version="1.0" encoding="utf-8" standalone="no"?>
<!DOCTYPE svg PUBLIC "-//W3C//DTD SVG 1.1//EN"
  "http://www.w3.org/Graphics/SVG/1.1/DTD/svg11.dtd">
<svg xmlns:xlink="http://www.w3.org/1999/xlink" width="1296pt" height="1080pt" viewBox="0 0 1296 1080" xmlns="http://www.w3.org/2000/svg" version="1.1">
 <metadata>
  <rdf:RDF xmlns:dc="http://purl.org/dc/elements/1.1/" xmlns:cc="http://creativecommons.org/ns#" xmlns:rdf="http://www.w3.org/1999/02/22-rdf-syntax-ns#">
   <cc:Work>
    <dc:type rdf:resource="http://purl.org/dc/dcmitype/StillImage"/>
    <dc:date>2023-10-13T01:38:41.923292</dc:date>
    <dc:format>image/svg+xml</dc:format>
    <dc:creator>
     <cc:Agent>
      <dc:title>Matplotlib v3.7.2, https://matplotlib.org/</dc:title>
     </cc:Agent>
    </dc:creator>
   </cc:Work>
  </rdf:RDF>
 </metadata>
 <defs>
  <style type="text/css">*{stroke-linejoin: round; stroke-linecap: butt}</style>
 </defs>
 <g id="figure_1">
  <g id="patch_1">
   <path d="M 0 1080 
L 1296 1080 
L 1296 0 
L 0 0 
z
" style="fill: #ffffff"/>
  </g>
  <g id="axes_1">
   <g id="patch_2">
    <path d="M 162 961.2 
L 1166.4 961.2 
L 1166.4 129.6 
L 162 129.6 
z
" style="fill: #ffffff"/>
   </g>
   <g id="PolyCollection_1">
    <path d="M 207.654545 793.350395 
L 207.654545 861.01896 
L 255.711962 820.283045 
L 303.769378 831.550496 
L 351.826794 865.470311 
L 399.884211 822.78544 
L 447.941627 777.2042 
L 495.999043 827.953583 
L 544.056459 884.86663 
L 592.113876 807.746314 
L 640.171292 759.431199 
L 688.228708 788.257835 
L 736.286124 770.571821 
L 784.343541 788.944803 
L 832.400957 817.406066 
L 880.458373 783.019403 
L 928.515789 819.0938 
L 976.573206 857.968701 
L 1024.630622 819.110471 
L 1072.688038 825.27446 
L 1120.745455 771.784153 
L 1120.745455 704.115588 
L 1120.745455 704.115588 
L 1072.688038 757.605895 
L 1024.630622 751.441906 
L 976.573206 790.300136 
L 928.515789 751.425235 
L 880.458373 715.350838 
L 832.400957 749.7375 
L 784.343541 721.276238 
L 736.286124 702.903256 
L 688.228708 720.58927 
L 640.171292 691.762634 
L 592.113876 740.077749 
L 544.056459 817.198065 
L 495.999043 760.285018 
L 447.941627 709.535635 
L 399.884211 755.116875 
L 351.826794 797.801746 
L 303.769378 763.88193 
L 255.711962 752.61448 
L 207.654545 793.350395 
z
" clip-path="url(#pfd0f33cd68)" style="fill: #ef7a6d; fill-opacity: 0.3"/>
   </g>
   <g id="PolyCollection_2">
    <path d="M 207.654545 696.303091 
L 207.654545 784.62133 
L 255.711962 609.256834 
L 303.769378 716.739213 
L 351.826794 648.395965 
L 399.884211 718.984302 
L 447.941627 702.024876 
L 495.999043 728.048743 
L 544.056459 728.337185 
L 592.113876 763.652273 
L 640.171292 691.937982 
L 688.228708 673.996882 
L 736.286124 688.867159 
L 784.343541 768.450369 
L 832.400957 665.028095 
L 880.458373 717.53562 
L 928.515789 747.29133 
L 976.573206 677.186757 
L 1024.630622 740.68802 
L 1072.688038 779.306966 
L 1120.745455 726.632829 
L 1120.745455 638.31459 
L 1120.745455 638.31459 
L 1072.688038 690.988727 
L 1024.630622 652.369782 
L 976.573206 588.868519 
L 928.515789 658.973091 
L 880.458373 629.217382 
L 832.400957 576.709856 
L 784.343541 680.132131 
L 736.286124 600.54892 
L 688.228708 585.678643 
L 640.171292 603.619743 
L 592.113876 675.334034 
L 544.056459 640.018947 
L 495.999043 639.730504 
L 447.941627 613.706637 
L 399.884211 630.666063 
L 351.826794 560.077726 
L 303.769378 628.420974 
L 255.711962 520.938596 
L 207.654545 696.303091 
z
" clip-path="url(#pfd0f33cd68)" style="fill: #32b897; fill-opacity: 0.3"/>
   </g>
   <g id="PolyCollection_3">
    <path d="M 207.654545 652.407188 
L 207.654545 755.060247 
L 255.711962 779.954697 
L 303.769378 635.259947 
L 351.826794 641.290968 
L 399.884211 720.440757 
L 447.941627 726.636942 
L 495.999043 782.121923 
L 544.056459 753.204543 
L 592.113876 700.600586 
L 640.171292 781.944361 
L 688.228708 684.264119 
L 736.286124 808.452095 
L 784.343541 770.761071 
L 832.400957 772.168959 
L 880.458373 800.224413 
L 928.515789 700.517206 
L 976.573206 794.212107 
L 1024.630622 694.982195 
L 1072.688038 765.068881 
L 1120.745455 677.304259 
L 1120.745455 574.6512 
L 1120.745455 574.6512 
L 1072.688038 662.415823 
L 1024.630622 592.329136 
L 976.573206 691.559048 
L 928.515789 597.864148 
L 880.458373 697.571355 
L 832.400957 669.5159 
L 784.343541 668.108013 
L 736.286124 705.799037 
L 688.228708 581.611061 
L 640.171292 679.291302 
L 592.113876 597.947527 
L 544.056459 650.551485 
L 495.999043 679.468865 
L 447.941627 623.983883 
L 399.884211 617.787699 
L 351.826794 538.637909 
L 303.769378 532.606888 
L 255.711962 677.301638 
L 207.654545 652.407188 
z
" clip-path="url(#pfd0f33cd68)" style="fill: #aad2f9; fill-opacity: 0.3"/>
   </g>
   <g id="PathCollection_1">
    <defs>
     <path id="me5c69ebffc" d="M 0 3 
C 0.795609 3 1.55874 2.683901 2.12132 2.12132 
C 2.683901 1.55874 3 0.795609 3 0 
C 3 -0.795609 2.683901 -1.55874 2.12132 -2.12132 
C 1.55874 -2.683901 0.795609 -3 0 -3 
C -0.795609 -3 -1.55874 -2.683901 -2.12132 -2.12132 
C -2.683901 -1.55874 -3 -0.795609 -3 0 
C -3 0.795609 -2.683901 1.55874 -2.12132 2.12132 
C -1.55874 2.683901 -0.795609 3 0 3 
z
" style="stroke: #fcac68"/>
    </defs>
    <g clip-path="url(#pfd0f33cd68)">
     <use xlink:href="#me5c69ebffc" x="207.654545" y="827.184677" style="fill: #fcac68; stroke: #fcac68"/>
     <use xlink:href="#me5c69ebffc" x="255.711962" y="786.448762" style="fill: #fcac68; stroke: #fcac68"/>
     <use xlink:href="#me5c69ebffc" x="303.769378" y="797.716213" style="fill: #fcac68; stroke: #fcac68"/>
     <use xlink:href="#me5c69ebffc" x="351.826794" y="831.636028" style="fill: #fcac68; stroke: #fcac68"/>
     <use xlink:href="#me5c69ebffc" x="399.884211" y="788.951158" style="fill: #fcac68; stroke: #fcac68"/>
     <use xlink:href="#me5c69ebffc" x="447.941627" y="743.369917" style="fill: #fcac68; stroke: #fcac68"/>
     <use xlink:href="#me5c69ebffc" x="495.999043" y="794.1193" style="fill: #fcac68; stroke: #fcac68"/>
     <use xlink:href="#me5c69ebffc" x="544.056459" y="851.032347" style="fill: #fcac68; stroke: #fcac68"/>
     <use xlink:href="#me5c69ebffc" x="592.113876" y="773.912031" style="fill: #fcac68; stroke: #fcac68"/>
     <use xlink:href="#me5c69ebffc" x="640.171292" y="725.596916" style="fill: #fcac68; stroke: #fcac68"/>
     <use xlink:href="#me5c69ebffc" x="688.228708" y="754.423553" style="fill: #fcac68; stroke: #fcac68"/>
     <use xlink:href="#me5c69ebffc" x="736.286124" y="736.737538" style="fill: #fcac68; stroke: #fcac68"/>
     <use xlink:href="#me5c69ebffc" x="784.343541" y="755.11052" style="fill: #fcac68; stroke: #fcac68"/>
     <use xlink:href="#me5c69ebffc" x="832.400957" y="783.571783" style="fill: #fcac68; stroke: #fcac68"/>
     <use xlink:href="#me5c69ebffc" x="880.458373" y="749.185121" style="fill: #fcac68; stroke: #fcac68"/>
     <use xlink:href="#me5c69ebffc" x="928.515789" y="785.259517" style="fill: #fcac68; stroke: #fcac68"/>
     <use xlink:href="#me5c69ebffc" x="976.573206" y="824.134419" style="fill: #fcac68; stroke: #fcac68"/>
     <use xlink:href="#me5c69ebffc" x="1024.630622" y="785.276189" style="fill: #fcac68; stroke: #fcac68"/>
     <use xlink:href="#me5c69ebffc" x="1072.688038" y="791.440178" style="fill: #fcac68; stroke: #fcac68"/>
     <use xlink:href="#me5c69ebffc" x="1120.745455" y="737.949871" style="fill: #fcac68; stroke: #fcac68"/>
    </g>
   </g>
   <g id="PathCollection_2">
    <defs>
     <path id="mfc7727f7c2" d="M 0 3 
C 0.795609 3 1.55874 2.683901 2.12132 2.12132 
C 2.683901 1.55874 3 0.795609 3 0 
C 3 -0.795609 2.683901 -1.55874 2.12132 -2.12132 
C 1.55874 -2.683901 0.795609 -3 0 -3 
C -0.795609 -3 -1.55874 -2.683901 -2.12132 -2.12132 
C -2.683901 -1.55874 -3 -0.795609 -3 0 
C -3 0.795609 -2.683901 1.55874 -2.12132 2.12132 
C -1.55874 2.683901 -0.795609 3 0 3 
z
" style="stroke: #26a03e"/>
    </defs>
    <g clip-path="url(#pfd0f33cd68)">
     <use xlink:href="#mfc7727f7c2" x="207.654545" y="740.46221" style="fill: #26a03e; stroke: #26a03e"/>
     <use xlink:href="#mfc7727f7c2" x="255.711962" y="565.097715" style="fill: #26a03e; stroke: #26a03e"/>
     <use xlink:href="#mfc7727f7c2" x="303.769378" y="672.580093" style="fill: #26a03e; stroke: #26a03e"/>
     <use xlink:href="#mfc7727f7c2" x="351.826794" y="604.236845" style="fill: #26a03e; stroke: #26a03e"/>
     <use xlink:href="#mfc7727f7c2" x="399.884211" y="674.825183" style="fill: #26a03e; stroke: #26a03e"/>
     <use xlink:href="#mfc7727f7c2" x="447.941627" y="657.865756" style="fill: #26a03e; stroke: #26a03e"/>
     <use xlink:href="#mfc7727f7c2" x="495.999043" y="683.889624" style="fill: #26a03e; stroke: #26a03e"/>
     <use xlink:href="#mfc7727f7c2" x="544.056459" y="684.178066" style="fill: #26a03e; stroke: #26a03e"/>
     <use xlink:href="#mfc7727f7c2" x="592.113876" y="719.493154" style="fill: #26a03e; stroke: #26a03e"/>
     <use xlink:href="#mfc7727f7c2" x="640.171292" y="647.778862" style="fill: #26a03e; stroke: #26a03e"/>
     <use xlink:href="#mfc7727f7c2" x="688.228708" y="629.837762" style="fill: #26a03e; stroke: #26a03e"/>
     <use xlink:href="#mfc7727f7c2" x="736.286124" y="644.708039" style="fill: #26a03e; stroke: #26a03e"/>
     <use xlink:href="#mfc7727f7c2" x="784.343541" y="724.29125" style="fill: #26a03e; stroke: #26a03e"/>
     <use xlink:href="#mfc7727f7c2" x="832.400957" y="620.868976" style="fill: #26a03e; stroke: #26a03e"/>
     <use xlink:href="#mfc7727f7c2" x="880.458373" y="673.376501" style="fill: #26a03e; stroke: #26a03e"/>
     <use xlink:href="#mfc7727f7c2" x="928.515789" y="703.132211" style="fill: #26a03e; stroke: #26a03e"/>
     <use xlink:href="#mfc7727f7c2" x="976.573206" y="633.027638" style="fill: #26a03e; stroke: #26a03e"/>
     <use xlink:href="#mfc7727f7c2" x="1024.630622" y="696.528901" style="fill: #26a03e; stroke: #26a03e"/>
     <use xlink:href="#mfc7727f7c2" x="1072.688038" y="735.147847" style="fill: #26a03e; stroke: #26a03e"/>
     <use xlink:href="#mfc7727f7c2" x="1120.745455" y="682.473709" style="fill: #26a03e; stroke: #26a03e"/>
    </g>
   </g>
   <g id="PathCollection_3">
    <defs>
     <path id="m387a1a6483" d="M 0 3 
C 0.795609 3 1.55874 2.683901 2.12132 2.12132 
C 2.683901 1.55874 3 0.795609 3 0 
C 3 -0.795609 2.683901 -1.55874 2.12132 -2.12132 
C 1.55874 -2.683901 0.795609 -3 0 -3 
C -0.795609 -3 -1.55874 -2.683901 -2.12132 -2.12132 
C -2.683901 -1.55874 -3 -0.795609 -3 0 
C -3 0.795609 -2.683901 1.55874 -2.12132 2.12132 
C -1.55874 2.683901 -0.795609 3 0 3 
z
" style="stroke: #2e74b0"/>
    </defs>
    <g clip-path="url(#pfd0f33cd68)">
     <use xlink:href="#m387a1a6483" x="207.654545" y="703.733717" style="fill: #2e74b0; stroke: #2e74b0"/>
     <use xlink:href="#m387a1a6483" x="255.711962" y="728.628168" style="fill: #2e74b0; stroke: #2e74b0"/>
     <use xlink:href="#m387a1a6483" x="303.769378" y="583.933418" style="fill: #2e74b0; stroke: #2e74b0"/>
     <use xlink:href="#m387a1a6483" x="351.826794" y="589.964438" style="fill: #2e74b0; stroke: #2e74b0"/>
     <use xlink:href="#m387a1a6483" x="399.884211" y="669.114228" style="fill: #2e74b0; stroke: #2e74b0"/>
     <use xlink:href="#m387a1a6483" x="447.941627" y="675.310413" style="fill: #2e74b0; stroke: #2e74b0"/>
     <use xlink:href="#m387a1a6483" x="495.999043" y="730.795394" style="fill: #2e74b0; stroke: #2e74b0"/>
     <use xlink:href="#m387a1a6483" x="544.056459" y="701.878014" style="fill: #2e74b0; stroke: #2e74b0"/>
     <use xlink:href="#m387a1a6483" x="592.113876" y="649.274056" style="fill: #2e74b0; stroke: #2e74b0"/>
     <use xlink:href="#m387a1a6483" x="640.171292" y="730.617831" style="fill: #2e74b0; stroke: #2e74b0"/>
     <use xlink:href="#m387a1a6483" x="688.228708" y="632.93759" style="fill: #2e74b0; stroke: #2e74b0"/>
     <use xlink:href="#m387a1a6483" x="736.286124" y="757.125566" style="fill: #2e74b0; stroke: #2e74b0"/>
     <use xlink:href="#m387a1a6483" x="784.343541" y="719.434542" style="fill: #2e74b0; stroke: #2e74b0"/>
     <use xlink:href="#m387a1a6483" x="832.400957" y="720.84243" style="fill: #2e74b0; stroke: #2e74b0"/>
     <use xlink:href="#m387a1a6483" x="880.458373" y="748.897884" style="fill: #2e74b0; stroke: #2e74b0"/>
     <use xlink:href="#m387a1a6483" x="928.515789" y="649.190677" style="fill: #2e74b0; stroke: #2e74b0"/>
     <use xlink:href="#m387a1a6483" x="976.573206" y="742.885577" style="fill: #2e74b0; stroke: #2e74b0"/>
     <use xlink:href="#m387a1a6483" x="1024.630622" y="643.655665" style="fill: #2e74b0; stroke: #2e74b0"/>
     <use xlink:href="#m387a1a6483" x="1072.688038" y="713.742352" style="fill: #2e74b0; stroke: #2e74b0"/>
     <use xlink:href="#m387a1a6483" x="1120.745455" y="625.977729" style="fill: #2e74b0; stroke: #2e74b0"/>
    </g>
   </g>
   <g id="matplotlib.axis_1">
    <g id="xtick_1">
     <g id="line2d_1">
      <defs>
       <path id="m1beb7a84bc" d="M 0 0 
L 0 3.5 
" style="stroke: #000000; stroke-width: 0.8"/>
      </defs>
      <g>
       <use xlink:href="#m1beb7a84bc" x="279.74067" y="961.2" style="stroke: #000000; stroke-width: 0.8"/>
      </g>
     </g>
     <g id="text_1">
      <!-- 2.5 -->
      <g transform="translate(255.531607 991.575) scale(0.34 -0.34)">
       <defs>
        <path id="SitkaText-32" d="M 341 0 
L 341 353 
Q 785 657 1163 910 
Q 1542 1163 1825 1400 
Q 2108 1638 2264 1884 
Q 2421 2130 2421 2415 
Q 2421 2756 2267 2929 
Q 2113 3103 1781 3103 
Q 1610 3103 1433 3040 
Q 1257 2978 1095 2885 
Q 933 2793 803 2703 
Q 674 2614 597 2557 
L 467 2557 
L 444 3149 
Q 543 3197 721 3269 
Q 899 3342 1140 3400 
Q 1382 3459 1673 3459 
Q 2065 3459 2379 3348 
Q 2694 3237 2877 3018 
Q 3061 2799 3061 2469 
Q 3061 2159 2904 1910 
Q 2748 1661 2472 1436 
Q 2196 1212 1836 985 
Q 1476 759 1070 498 
L 1070 455 
L 1553 506 
L 2751 506 
Q 2822 506 2860 539 
Q 2899 572 2910 629 
L 2978 1018 
L 3265 1018 
L 3265 0 
L 341 0 
z
" transform="scale(0.015625)"/>
        <path id="SitkaText-2e" d="M 518 356 
Q 518 538 643 663 
Q 768 788 950 788 
Q 1132 788 1257 663 
Q 1382 538 1382 356 
Q 1382 174 1257 51 
Q 1132 -71 950 -71 
Q 768 -71 643 51 
Q 518 174 518 356 
z
" transform="scale(0.015625)"/>
        <path id="SitkaText-35" d="M 316 -794 
L 339 -176 
L 472 -176 
Q 549 -228 685 -313 
Q 822 -398 997 -483 
Q 1172 -569 1367 -627 
Q 1562 -686 1758 -686 
Q 2034 -686 2220 -565 
Q 2406 -444 2503 -232 
Q 2600 -20 2600 250 
Q 2600 609 2459 835 
Q 2318 1061 2055 1166 
Q 1792 1271 1422 1271 
Q 1203 1271 992 1225 
Q 782 1180 688 1149 
L 552 1152 
L 740 3297 
L 3075 3297 
L 3075 2762 
L 1027 2762 
L 925 1675 
Q 1058 1718 1247 1741 
Q 1437 1764 1584 1764 
Q 2051 1764 2416 1613 
Q 2782 1462 2994 1157 
Q 3206 853 3206 393 
Q 3206 68 3062 -196 
Q 2918 -461 2676 -651 
Q 2435 -842 2137 -946 
Q 1840 -1050 1533 -1050 
Q 1229 -1050 990 -1001 
Q 751 -953 582 -892 
Q 413 -831 316 -794 
z
" transform="scale(0.015625)"/>
       </defs>
       <use xlink:href="#SitkaText-32"/>
       <use xlink:href="#SitkaText-2e" x="57.022217"/>
       <use xlink:href="#SitkaText-35" x="86.533325"/>
      </g>
     </g>
    </g>
    <g id="xtick_2">
     <g id="line2d_2">
      <g>
       <use xlink:href="#m1beb7a84bc" x="399.884211" y="961.2" style="stroke: #000000; stroke-width: 0.8"/>
      </g>
     </g>
     <g id="text_2">
      <!-- 5.0 -->
      <g transform="translate(374.548898 991.575) scale(0.34 -0.34)">
       <defs>
        <path id="SitkaText-30" d="M 2022 -85 
Q 1533 -85 1163 125 
Q 794 336 586 727 
Q 378 1118 378 1653 
Q 378 2145 583 2541 
Q 788 2938 1163 3170 
Q 1539 3402 2051 3402 
Q 2608 3402 2971 3159 
Q 3334 2916 3513 2519 
Q 3692 2122 3692 1664 
Q 3692 1175 3488 778 
Q 3285 381 2911 148 
Q 2537 -85 2022 -85 
z
M 2065 228 
Q 2355 228 2547 351 
Q 2739 475 2851 677 
Q 2964 879 3012 1118 
Q 3061 1357 3061 1587 
Q 3061 1960 2954 2304 
Q 2847 2648 2615 2867 
Q 2384 3086 2005 3086 
Q 1718 3086 1526 2959 
Q 1334 2833 1221 2629 
Q 1109 2426 1061 2187 
Q 1013 1948 1013 1721 
Q 1013 1468 1065 1206 
Q 1118 944 1239 722 
Q 1360 501 1563 364 
Q 1766 228 2065 228 
z
" transform="scale(0.015625)"/>
       </defs>
       <use xlink:href="#SitkaText-35"/>
       <use xlink:href="#SitkaText-2e" x="55.866653"/>
       <use xlink:href="#SitkaText-30" x="85.377762"/>
      </g>
     </g>
    </g>
    <g id="xtick_3">
     <g id="line2d_3">
      <g>
       <use xlink:href="#m1beb7a84bc" x="520.027751" y="961.2" style="stroke: #000000; stroke-width: 0.8"/>
      </g>
     </g>
     <g id="text_3">
      <!-- 7.5 -->
      <g transform="translate(496.097595 991.575) scale(0.34 -0.34)">
       <defs>
        <path id="SitkaText-37" d="M 768 -1089 
L 2887 2782 
L 2887 2836 
L 2515 2788 
L 939 2788 
Q 816 2788 794 2668 
L 694 2051 
L 393 2051 
L 393 3297 
L 3422 3297 
L 3422 3066 
L 1297 -1089 
L 768 -1089 
z
" transform="scale(0.015625)"/>
       </defs>
       <use xlink:href="#SitkaText-37"/>
       <use xlink:href="#SitkaText-2e" x="55.377762"/>
       <use xlink:href="#SitkaText-35" x="84.88887"/>
      </g>
     </g>
    </g>
    <g id="xtick_4">
     <g id="line2d_4">
      <g>
       <use xlink:href="#m1beb7a84bc" x="640.171292" y="961.2" style="stroke: #000000; stroke-width: 0.8"/>
      </g>
     </g>
     <g id="text_4">
      <!-- 10.0 -->
      <g transform="translate(605.717073 991.575) scale(0.34 -0.34)">
       <defs>
        <path id="SitkaText-31" d="M 543 0 
L 543 213 
L 1220 367 
Q 1272 381 1304 416 
Q 1337 452 1337 515 
L 1337 2341 
L 1374 2759 
L 1326 2759 
L 469 2586 
L 469 2833 
L 1684 3379 
L 1934 3379 
Q 1923 3180 1917 2915 
Q 1912 2651 1912 2432 
L 1912 515 
Q 1912 449 1941 415 
Q 1971 381 2022 367 
L 2668 213 
L 2668 0 
L 543 0 
z
" transform="scale(0.015625)"/>
       </defs>
       <use xlink:href="#SitkaText-31"/>
       <use xlink:href="#SitkaText-30" x="45.866653"/>
       <use xlink:href="#SitkaText-2e" x="109.511093"/>
       <use xlink:href="#SitkaText-30" x="139.022202"/>
      </g>
     </g>
    </g>
    <g id="xtick_5">
     <g id="line2d_5">
      <g>
       <use xlink:href="#m1beb7a84bc" x="760.314833" y="961.2" style="stroke: #000000; stroke-width: 0.8"/>
      </g>
     </g>
     <g id="text_5">
      <!-- 12.5 -->
      <g transform="translate(728.30702 991.575) scale(0.34 -0.34)">
       <use xlink:href="#SitkaText-31"/>
       <use xlink:href="#SitkaText-32" x="45.866653"/>
       <use xlink:href="#SitkaText-2e" x="102.88887"/>
       <use xlink:href="#SitkaText-35" x="132.399979"/>
      </g>
     </g>
    </g>
    <g id="xtick_6">
     <g id="line2d_6">
      <g>
       <use xlink:href="#m1beb7a84bc" x="880.458373" y="961.2" style="stroke: #000000; stroke-width: 0.8"/>
      </g>
     </g>
     <g id="text_6">
      <!-- 15.0 -->
      <g transform="translate(847.324311 991.575) scale(0.34 -0.34)">
       <use xlink:href="#SitkaText-31"/>
       <use xlink:href="#SitkaText-35" x="45.866653"/>
       <use xlink:href="#SitkaText-2e" x="101.733307"/>
       <use xlink:href="#SitkaText-30" x="131.244415"/>
      </g>
     </g>
    </g>
    <g id="xtick_7">
     <g id="line2d_7">
      <g>
       <use xlink:href="#m1beb7a84bc" x="1000.601914" y="961.2" style="stroke: #000000; stroke-width: 0.8"/>
      </g>
     </g>
     <g id="text_7">
      <!-- 17.5 -->
      <g transform="translate(968.873008 991.575) scale(0.34 -0.34)">
       <use xlink:href="#SitkaText-31"/>
       <use xlink:href="#SitkaText-37" x="45.866653"/>
       <use xlink:href="#SitkaText-2e" x="101.244415"/>
       <use xlink:href="#SitkaText-35" x="130.755524"/>
      </g>
     </g>
    </g>
    <g id="xtick_8">
     <g id="line2d_8">
      <g>
       <use xlink:href="#m1beb7a84bc" x="1120.745455" y="961.2" style="stroke: #000000; stroke-width: 0.8"/>
      </g>
     </g>
     <g id="text_8">
      <!-- 20.0 -->
      <g transform="translate(1084.39733 991.575) scale(0.34 -0.34)">
       <use xlink:href="#SitkaText-32"/>
       <use xlink:href="#SitkaText-30" x="57.022217"/>
       <use xlink:href="#SitkaText-2e" x="120.666656"/>
       <use xlink:href="#SitkaText-30" x="150.177765"/>
      </g>
     </g>
    </g>
    <g id="text_9">
     <!-- Image Batches -->
     <g transform="translate(542.213438 1027.789062) scale(0.36 -0.36)">
      <defs>
       <path id="SitkaText-49" d="M 316 0 
L 316 213 
L 777 353 
Q 828 370 856 401 
Q 885 432 885 495 
L 885 3590 
Q 885 3649 853 3680 
Q 822 3712 777 3726 
L 316 3871 
L 316 4079 
L 2051 4079 
L 2051 3871 
L 1593 3726 
Q 1547 3712 1514 3679 
Q 1482 3647 1482 3590 
L 1482 495 
Q 1482 432 1514 399 
Q 1547 367 1593 353 
L 2051 213 
L 2051 0 
L 316 0 
z
" transform="scale(0.015625)"/>
       <path id="SitkaText-6d" d="M 2236 0 
L 2236 208 
L 2520 319 
Q 2569 338 2601 371 
Q 2634 404 2634 469 
L 2634 1863 
Q 2634 2130 2587 2319 
Q 2540 2509 2405 2608 
Q 2270 2708 2000 2708 
Q 1818 2708 1617 2647 
Q 1417 2586 1286 2415 
L 1286 461 
Q 1286 401 1320 371 
Q 1354 341 1400 321 
L 1664 208 
L 1664 0 
L 262 0 
L 262 208 
L 609 319 
Q 654 333 687 367 
Q 720 401 720 461 
L 720 2469 
Q 720 2532 685 2564 
Q 651 2597 597 2617 
L 262 2756 
L 262 2961 
L 1235 3118 
L 1235 2631 
L 1272 2631 
Q 1519 2958 1765 3049 
Q 2011 3140 2247 3140 
Q 2446 3140 2624 3083 
Q 2802 3026 2938 2894 
Q 3075 2762 3149 2534 
L 3200 2495 
L 3200 469 
Q 3200 401 3234 372 
Q 3268 344 3314 321 
L 3573 208 
L 3573 0 
L 2236 0 
z
M 4142 0 
L 4142 208 
L 4435 319 
Q 4483 338 4515 371 
Q 4548 404 4548 469 
L 4548 1863 
Q 4548 2130 4501 2319 
Q 4454 2509 4317 2608 
Q 4181 2708 3908 2708 
Q 3732 2708 3517 2638 
Q 3302 2569 3172 2369 
L 3095 2503 
Q 3311 2805 3496 2938 
Q 3681 3072 3844 3106 
Q 4008 3140 4156 3140 
Q 4417 3140 4635 3033 
Q 4853 2927 4983 2699 
Q 5114 2472 5114 2108 
L 5114 469 
Q 5114 404 5148 371 
Q 5183 338 5228 321 
L 5535 208 
L 5535 0 
L 4142 0 
z
" transform="scale(0.015625)"/>
       <path id="SitkaText-61" d="M 1198 -60 
Q 922 -60 725 62 
Q 529 185 424 380 
Q 319 575 319 796 
Q 319 1089 464 1289 
Q 609 1490 836 1611 
Q 1064 1732 1317 1786 
Q 1570 1840 1786 1840 
Q 1829 1840 1924 1831 
Q 2020 1823 2116 1813 
Q 2213 1803 2250 1798 
L 2253 2219 
Q 2256 2540 2095 2662 
Q 1934 2785 1681 2785 
Q 1536 2785 1391 2735 
Q 1246 2685 1112 2609 
Q 979 2534 866 2457 
Q 754 2381 674 2330 
L 560 2330 
L 541 2884 
Q 705 2947 877 3005 
Q 1050 3063 1253 3101 
Q 1456 3140 1715 3140 
Q 1994 3140 2247 3059 
Q 2500 2978 2662 2766 
Q 2825 2554 2822 2159 
L 2816 580 
Q 2816 475 2900 408 
Q 2984 341 3086 341 
Q 3143 341 3221 369 
Q 3300 398 3365 430 
L 3411 430 
L 3411 191 
Q 3357 151 3253 91 
Q 3149 31 3035 -14 
Q 2921 -60 2830 -60 
Q 2563 -60 2430 65 
Q 2298 191 2298 458 
L 2261 458 
Q 2105 236 1913 125 
Q 1721 14 1533 -23 
Q 1345 -60 1198 -60 
z
M 1476 350 
Q 1661 350 1893 428 
Q 2125 506 2250 677 
L 2250 1536 
Q 1855 1536 1556 1486 
Q 1257 1436 1091 1299 
Q 925 1163 925 899 
Q 925 686 1010 566 
Q 1095 447 1223 398 
Q 1351 350 1476 350 
z
" transform="scale(0.015625)"/>
       <path id="SitkaText-67" d="M 1624 1064 
Q 1454 1064 1297 1095 
Q 1141 1126 1067 1158 
Q 996 1135 930 1052 
Q 865 970 865 845 
Q 865 737 934 646 
Q 1004 555 1092 529 
L 2156 529 
Q 2549 529 2778 411 
Q 3007 293 3105 115 
Q 3203 -63 3203 -247 
Q 3203 -586 2987 -847 
Q 2771 -1109 2404 -1257 
Q 2037 -1405 1584 -1405 
Q 1198 -1405 889 -1315 
Q 580 -1226 402 -1052 
Q 225 -879 225 -631 
Q 225 -341 414 -169 
Q 603 3 853 65 
L 853 102 
Q 754 134 648 202 
Q 543 270 470 378 
Q 398 486 398 640 
Q 398 819 480 943 
Q 563 1067 685 1141 
Q 808 1215 927 1240 
L 927 1271 
Q 822 1334 705 1438 
Q 589 1542 509 1701 
Q 430 1860 430 2082 
Q 430 2389 579 2628 
Q 728 2867 1002 3003 
Q 1277 3140 1650 3140 
Q 1852 3140 2014 3117 
Q 2176 3095 2330 3061 
L 3337 3061 
L 3320 2702 
L 2591 2748 
L 2591 2722 
Q 2708 2580 2779 2440 
Q 2850 2301 2850 2074 
Q 2850 1641 2528 1352 
Q 2207 1064 1624 1064 
z
M 1630 1326 
Q 1835 1326 1977 1414 
Q 2119 1502 2194 1677 
Q 2270 1852 2270 2116 
Q 2270 2497 2095 2685 
Q 1920 2873 1633 2873 
Q 1471 2873 1334 2796 
Q 1198 2719 1114 2552 
Q 1030 2386 1030 2113 
Q 1030 1715 1196 1520 
Q 1363 1326 1630 1326 
z
M 1715 -1081 
Q 1960 -1081 2189 -1017 
Q 2418 -953 2567 -806 
Q 2717 -660 2717 -418 
Q 2717 -259 2576 -104 
Q 2435 51 2113 51 
L 1129 51 
Q 1016 20 900 -108 
Q 785 -236 785 -472 
Q 785 -651 880 -770 
Q 976 -890 1124 -957 
Q 1272 -1024 1431 -1052 
Q 1590 -1081 1715 -1081 
z
" transform="scale(0.015625)"/>
       <path id="SitkaText-65" d="M 1741 -65 
Q 1328 -65 995 115 
Q 663 296 469 648 
Q 276 1001 276 1513 
Q 276 1971 462 2339 
Q 649 2708 980 2924 
Q 1311 3140 1749 3140 
Q 2153 3140 2439 2972 
Q 2725 2805 2877 2529 
Q 3029 2253 3029 1929 
Q 3029 1892 3026 1833 
Q 3024 1775 3019 1718 
Q 3015 1661 3004 1621 
L 825 1621 
L 842 1917 
L 2424 1917 
Q 2424 2196 2354 2401 
Q 2284 2606 2129 2718 
Q 1974 2830 1715 2830 
Q 1465 2830 1300 2723 
Q 1135 2617 1039 2440 
Q 944 2264 904 2055 
Q 865 1846 865 1644 
Q 865 1283 968 993 
Q 1072 703 1308 533 
Q 1545 364 1943 364 
Q 2162 364 2352 428 
Q 2543 492 2694 580 
Q 2845 668 2941 742 
L 3021 742 
L 3021 415 
Q 2808 242 2469 88 
Q 2131 -65 1741 -65 
z
" transform="scale(0.015625)"/>
       <path id="SitkaText-20" transform="scale(0.015625)"/>
       <path id="SitkaText-42" d="M 316 0 
L 316 213 
L 754 353 
Q 802 367 832 399 
Q 862 432 862 495 
L 862 3590 
Q 862 3649 830 3680 
Q 799 3712 754 3726 
L 316 3871 
L 316 4079 
L 1957 4079 
Q 2557 4079 2877 3949 
Q 3197 3820 3318 3614 
Q 3439 3408 3439 3174 
Q 3439 2788 3206 2533 
Q 2973 2278 2574 2179 
L 2574 2162 
Q 2901 2145 3157 2021 
Q 3413 1897 3561 1684 
Q 3709 1471 3709 1180 
Q 3709 828 3569 599 
Q 3430 370 3191 239 
Q 2953 108 2655 54 
Q 2358 0 2042 0 
L 316 0 
z
M 1459 3738 
L 1459 2258 
L 1752 2258 
Q 2350 2258 2579 2440 
Q 2808 2623 2808 2938 
Q 2808 3359 2584 3548 
Q 2361 3738 1869 3738 
L 1459 3738 
z
M 1459 1931 
L 1459 341 
L 2108 341 
Q 2586 341 2817 517 
Q 3049 694 3049 1089 
Q 3049 1556 2803 1743 
Q 2557 1931 1968 1931 
L 1459 1931 
z
" transform="scale(0.015625)"/>
       <path id="SitkaText-74" d="M 2293 3055 
L 2273 2731 
L 1212 2731 
L 1212 742 
Q 1212 609 1314 528 
Q 1417 447 1552 410 
Q 1687 373 1781 373 
Q 1880 373 2014 407 
Q 2148 441 2205 469 
L 2301 469 
L 2301 236 
Q 2250 202 2116 133 
Q 1983 65 1810 7 
Q 1638 -51 1465 -51 
Q 1246 -51 1058 21 
Q 870 94 756 229 
Q 643 364 643 555 
L 643 2731 
L 148 2731 
L 148 2992 
Q 310 3018 429 3048 
Q 549 3078 620 3166 
Q 691 3254 703 3450 
L 731 3868 
L 1212 3959 
L 1212 3055 
L 2293 3055 
z
" transform="scale(0.015625)"/>
       <path id="SitkaText-63" d="M 2805 759 
L 2890 759 
L 2890 435 
Q 2682 262 2386 98 
Q 2091 -65 1701 -65 
Q 1266 -65 950 135 
Q 634 336 462 685 
Q 290 1035 290 1485 
Q 290 1846 425 2147 
Q 560 2449 790 2671 
Q 1021 2893 1312 3014 
Q 1604 3135 1920 3135 
Q 2145 3135 2312 3092 
Q 2480 3049 2598 2993 
Q 2717 2938 2788 2904 
L 2768 2330 
L 2640 2330 
Q 2489 2418 2342 2514 
Q 2196 2611 2024 2678 
Q 1852 2745 1621 2745 
Q 1519 2745 1382 2692 
Q 1246 2640 1169 2554 
Q 1107 2483 1044 2373 
Q 981 2264 940 2079 
Q 899 1894 899 1601 
Q 899 1018 1155 692 
Q 1411 367 1900 367 
Q 2094 367 2263 434 
Q 2432 501 2568 593 
Q 2705 686 2805 759 
z
" transform="scale(0.015625)"/>
       <path id="SitkaText-68" d="M 239 208 
L 583 321 
Q 640 341 667 371 
Q 694 401 694 458 
L 694 3834 
Q 694 3897 660 3929 
Q 626 3962 572 3985 
L 211 4147 
L 211 4349 
L 1263 4400 
L 1263 2790 
L 1263 2631 
Q 1434 2856 1599 2964 
Q 1764 3072 1926 3106 
Q 2088 3140 2244 3140 
Q 2515 3140 2738 3033 
Q 2961 2927 3093 2699 
Q 3226 2472 3226 2108 
L 3226 472 
Q 3226 404 3258 371 
Q 3291 338 3337 321 
L 3649 208 
L 3649 0 
L 2253 0 
L 2253 208 
L 2543 321 
Q 2591 338 2624 371 
Q 2657 404 2657 472 
L 2657 1863 
Q 2657 2130 2607 2319 
Q 2557 2509 2415 2608 
Q 2273 2708 1991 2708 
Q 1801 2708 1599 2647 
Q 1397 2586 1263 2415 
L 1263 461 
Q 1263 401 1293 372 
Q 1323 344 1374 321 
L 1641 208 
L 1641 0 
L 239 0 
L 239 208 
z
" transform="scale(0.015625)"/>
       <path id="SitkaText-73" d="M 373 131 
L 373 856 
L 708 856 
L 799 580 
Q 819 523 854 483 
Q 890 444 930 421 
Q 1044 358 1202 315 
Q 1360 273 1516 273 
Q 1673 273 1829 321 
Q 1985 370 2090 473 
Q 2196 577 2196 745 
Q 2196 956 2068 1054 
Q 1940 1152 1707 1217 
Q 1547 1266 1388 1310 
Q 1229 1354 1075 1399 
Q 751 1496 583 1713 
Q 415 1931 415 2216 
Q 415 2486 593 2693 
Q 771 2901 1059 3020 
Q 1348 3140 1678 3140 
Q 1946 3140 2149 3103 
Q 2352 3066 2566 3007 
L 2577 2270 
L 2239 2270 
L 2145 2566 
Q 2131 2614 2092 2649 
Q 2054 2685 2014 2705 
Q 1917 2753 1799 2776 
Q 1681 2799 1553 2799 
Q 1294 2799 1120 2695 
Q 947 2591 947 2384 
Q 947 2170 1081 2056 
Q 1215 1943 1493 1857 
Q 1627 1818 1763 1776 
Q 1900 1735 2022 1698 
Q 2378 1593 2556 1416 
Q 2734 1240 2734 922 
Q 2734 612 2544 390 
Q 2355 168 2058 48 
Q 1761 -71 1431 -71 
Q 1112 -71 852 -5 
Q 592 60 373 131 
z
" transform="scale(0.015625)"/>
      </defs>
      <use xlink:href="#SitkaText-49"/>
      <use xlink:href="#SitkaText-6d" x="36.977768"/>
      <use xlink:href="#SitkaText-61" x="126.666641"/>
      <use xlink:href="#SitkaText-67" x="180.622192"/>
      <use xlink:href="#SitkaText-65" x="235.511078"/>
      <use xlink:href="#SitkaText-20" x="287.644394"/>
      <use xlink:href="#SitkaText-42" x="316.13327"/>
      <use xlink:href="#SitkaText-61" x="379.333267"/>
      <use xlink:href="#SitkaText-74" x="433.288818"/>
      <use xlink:href="#SitkaText-63" x="471.24437"/>
      <use xlink:href="#SitkaText-68" x="519.155472"/>
      <use xlink:href="#SitkaText-65" x="578.844345"/>
      <use xlink:href="#SitkaText-73" x="630.977661"/>
     </g>
    </g>
   </g>
   <g id="matplotlib.axis_2">
    <g id="ytick_1">
     <g id="line2d_9">
      <defs>
       <path id="m79d1404d5b" d="M 0 0 
L -3.5 0 
" style="stroke: #000000; stroke-width: 0.8"/>
      </defs>
      <g>
       <use xlink:href="#m79d1404d5b" x="162" y="961.2" style="stroke: #000000; stroke-width: 0.8"/>
      </g>
     </g>
     <g id="text_10">
      <!-- 120 -->
      <g transform="translate(98.379375 972.8875) scale(0.34 -0.34)">
       <use xlink:href="#SitkaText-31"/>
       <use xlink:href="#SitkaText-32" x="45.866653"/>
       <use xlink:href="#SitkaText-30" x="102.88887"/>
      </g>
     </g>
    </g>
    <g id="ytick_2">
     <g id="line2d_10">
      <g>
       <use xlink:href="#m79d1404d5b" x="162" y="822.6" style="stroke: #000000; stroke-width: 0.8"/>
      </g>
     </g>
     <g id="text_11">
      <!-- 160 -->
      <g transform="translate(97.34875 834.2875) scale(0.34 -0.34)">
       <defs>
        <path id="SitkaText-36" d="M 1920 -88 
Q 1405 -88 1071 153 
Q 737 395 572 822 
Q 407 1249 407 1803 
Q 407 2560 640 3052 
Q 873 3544 1229 3843 
Q 1468 4045 1756 4178 
Q 2045 4312 2406 4312 
Q 2682 4312 2891 4266 
Q 3101 4221 3226 4181 
L 3203 3612 
L 3069 3612 
Q 2973 3661 2815 3723 
Q 2657 3786 2459 3833 
Q 2261 3880 2040 3880 
Q 1846 3880 1721 3814 
Q 1596 3749 1510 3666 
Q 1448 3607 1355 3467 
Q 1263 3328 1173 3065 
Q 1084 2802 1035 2369 
L 1001 2193 
L 1027 2179 
Q 1326 2534 1609 2635 
Q 1892 2736 2168 2736 
Q 2529 2736 2823 2571 
Q 3118 2406 3294 2104 
Q 3470 1803 3470 1397 
Q 3470 987 3276 650 
Q 3083 313 2735 112 
Q 2387 -88 1920 -88 
z
M 1977 230 
Q 2392 230 2628 506 
Q 2864 782 2864 1254 
Q 2864 1755 2618 2024 
Q 2372 2293 1914 2293 
Q 1656 2293 1425 2206 
Q 1195 2119 1027 1966 
Q 1018 1903 1014 1824 
Q 1010 1746 1010 1655 
Q 1010 1161 1145 845 
Q 1280 529 1500 379 
Q 1721 230 1977 230 
z
" transform="scale(0.015625)"/>
       </defs>
       <use xlink:href="#SitkaText-31"/>
       <use xlink:href="#SitkaText-36" x="45.866653"/>
       <use xlink:href="#SitkaText-30" x="105.911087"/>
      </g>
     </g>
    </g>
    <g id="ytick_3">
     <g id="line2d_11">
      <g>
       <use xlink:href="#m79d1404d5b" x="162" y="684" style="stroke: #000000; stroke-width: 0.8"/>
      </g>
     </g>
     <g id="text_12">
      <!-- 200 -->
      <g transform="translate(92.339062 695.6875) scale(0.34 -0.34)">
       <use xlink:href="#SitkaText-32"/>
       <use xlink:href="#SitkaText-30" x="57.022217"/>
       <use xlink:href="#SitkaText-30" x="120.666656"/>
      </g>
     </g>
    </g>
    <g id="ytick_4">
     <g id="line2d_12">
      <g>
       <use xlink:href="#m79d1404d5b" x="162" y="545.4" style="stroke: #000000; stroke-width: 0.8"/>
      </g>
     </g>
     <g id="text_13">
      <!-- 240 -->
      <g transform="translate(93.529062 557.0875) scale(0.34 -0.34)">
       <defs>
        <path id="SitkaText-34" d="M 208 316 
L 208 688 
L 2432 3376 
L 2830 3376 
L 2827 -549 
Q 2827 -612 2855 -643 
Q 2884 -674 2938 -691 
L 3322 -811 
L 3322 -1018 
L 1752 -1018 
L 1752 -811 
L 2145 -691 
Q 2202 -674 2229 -643 
Q 2256 -612 2256 -549 
L 2256 2187 
L 2304 2660 
L 2256 2660 
L 646 714 
L 646 668 
L 1013 703 
L 3604 703 
L 3604 316 
L 208 316 
z
" transform="scale(0.015625)"/>
       </defs>
       <use xlink:href="#SitkaText-32"/>
       <use xlink:href="#SitkaText-34" x="57.022217"/>
       <use xlink:href="#SitkaText-30" x="117.155533"/>
      </g>
     </g>
    </g>
    <g id="ytick_5">
     <g id="line2d_13">
      <g>
       <use xlink:href="#m79d1404d5b" x="162" y="406.8" style="stroke: #000000; stroke-width: 0.8"/>
      </g>
     </g>
     <g id="text_14">
      <!-- 280 -->
      <g transform="translate(92.790625 418.4875) scale(0.34 -0.34)">
       <defs>
        <path id="SitkaText-38" d="M 1943 -97 
Q 1459 -97 1125 56 
Q 791 210 617 473 
Q 444 737 444 1070 
Q 444 1442 702 1708 
Q 961 1974 1456 2130 
Q 1024 2324 818 2595 
Q 612 2867 612 3194 
Q 612 3502 796 3762 
Q 981 4022 1311 4180 
Q 1641 4338 2077 4338 
Q 2497 4338 2797 4198 
Q 3098 4059 3258 3817 
Q 3419 3575 3419 3265 
Q 3419 2953 3224 2688 
Q 3029 2423 2617 2256 
Q 3109 2068 3338 1795 
Q 3567 1522 3567 1143 
Q 3567 816 3370 533 
Q 3174 250 2811 76 
Q 2449 -97 1943 -97 
z
M 2438 2318 
Q 2549 2421 2640 2539 
Q 2731 2657 2785 2816 
Q 2839 2975 2839 3197 
Q 2839 3553 2631 3787 
Q 2424 4022 2000 4022 
Q 1764 4022 1583 3925 
Q 1402 3829 1301 3662 
Q 1200 3496 1200 3285 
Q 1200 3063 1319 2904 
Q 1439 2745 1711 2610 
Q 1983 2475 2438 2318 
z
M 2034 219 
Q 2330 219 2541 327 
Q 2753 435 2868 623 
Q 2984 811 2984 1050 
Q 2984 1303 2834 1468 
Q 2685 1633 2386 1771 
Q 2088 1909 1633 2071 
Q 1368 1906 1201 1687 
Q 1035 1468 1035 1172 
Q 1035 737 1308 478 
Q 1582 219 2034 219 
z
" transform="scale(0.015625)"/>
       </defs>
       <use xlink:href="#SitkaText-32"/>
       <use xlink:href="#SitkaText-38" x="57.022217"/>
       <use xlink:href="#SitkaText-30" x="119.333313"/>
      </g>
     </g>
    </g>
    <g id="ytick_6">
     <g id="line2d_14">
      <g>
       <use xlink:href="#m79d1404d5b" x="162" y="268.2" style="stroke: #000000; stroke-width: 0.8"/>
      </g>
     </g>
     <g id="text_15">
      <!-- 320 -->
      <g transform="translate(94.889062 279.8875) scale(0.34 -0.34)">
       <defs>
        <path id="SitkaText-33" d="M 282 -791 
L 304 -174 
L 438 -174 
Q 518 -225 657 -310 
Q 797 -395 973 -482 
Q 1149 -569 1347 -627 
Q 1545 -686 1738 -686 
Q 2165 -686 2382 -442 
Q 2600 -199 2600 210 
Q 2600 458 2509 654 
Q 2418 850 2204 965 
Q 1991 1081 1627 1081 
L 1217 1081 
L 1217 1496 
L 1565 1496 
Q 1997 1496 2219 1699 
Q 2441 1903 2441 2332 
Q 2441 2642 2313 2844 
Q 2185 3046 1809 3046 
Q 1644 3046 1472 2992 
Q 1300 2938 1140 2857 
Q 981 2776 852 2695 
Q 723 2614 643 2560 
L 509 2560 
L 489 3146 
Q 632 3200 910 3301 
Q 1189 3402 1627 3402 
Q 2011 3402 2341 3287 
Q 2671 3172 2873 2951 
Q 3075 2731 3075 2412 
Q 3075 2233 2989 2026 
Q 2904 1820 2691 1638 
Q 2478 1456 2091 1351 
L 2091 1317 
Q 2276 1297 2473 1234 
Q 2671 1172 2840 1051 
Q 3009 930 3116 732 
Q 3223 535 3223 247 
Q 3223 -63 3072 -303 
Q 2921 -543 2671 -709 
Q 2421 -876 2119 -963 
Q 1818 -1050 1513 -1050 
Q 1217 -1050 975 -1003 
Q 734 -956 559 -893 
Q 384 -831 282 -791 
z
" transform="scale(0.015625)"/>
       </defs>
       <use xlink:href="#SitkaText-33"/>
       <use xlink:href="#SitkaText-32" x="56.133316"/>
       <use xlink:href="#SitkaText-30" x="113.155533"/>
      </g>
     </g>
    </g>
    <g id="ytick_7">
     <g id="line2d_15">
      <g>
       <use xlink:href="#m79d1404d5b" x="162" y="129.6" style="stroke: #000000; stroke-width: 0.8"/>
      </g>
     </g>
     <g id="text_16">
      <!-- 360 -->
      <g transform="translate(93.858437 141.2875) scale(0.34 -0.34)">
       <use xlink:href="#SitkaText-33"/>
       <use xlink:href="#SitkaText-36" x="56.133316"/>
       <use xlink:href="#SitkaText-30" x="116.17775"/>
      </g>
     </g>
    </g>
    <g id="text_17">
     <!-- FID value -->
     <g transform="translate(80.435937 625.604062) rotate(-90) scale(0.36 -0.36)">
      <defs>
       <path id="SitkaText-46" d="M 316 0 
L 316 213 
L 754 353 
Q 802 367 832 399 
Q 862 432 862 495 
L 862 3590 
Q 862 3649 830 3680 
Q 799 3712 754 3726 
L 316 3871 
L 316 4079 
L 3493 4079 
L 3493 3066 
L 3157 3066 
L 3046 3627 
Q 3035 3678 3004 3705 
Q 2973 3732 2924 3732 
L 1459 3732 
L 1459 2244 
L 2372 2244 
Q 2432 2244 2457 2271 
Q 2483 2298 2495 2347 
L 2600 2802 
L 2867 2802 
L 2867 1340 
L 2600 1340 
L 2495 1789 
Q 2483 1840 2457 1868 
Q 2432 1897 2372 1897 
L 1459 1897 
L 1459 495 
Q 1459 432 1492 399 
Q 1525 367 1570 353 
L 2034 213 
L 2034 0 
L 316 0 
z
" transform="scale(0.015625)"/>
       <path id="SitkaText-44" d="M 316 0 
L 316 213 
L 754 353 
Q 799 367 830 399 
Q 862 432 862 495 
L 862 3590 
Q 862 3649 830 3680 
Q 799 3712 754 3726 
L 316 3871 
L 316 4079 
L 2182 4079 
Q 2426 4079 2703 4022 
Q 2981 3965 3251 3828 
Q 3521 3692 3741 3456 
Q 3962 3220 4094 2867 
Q 4227 2514 4227 2022 
Q 4227 1326 3949 878 
Q 3672 430 3205 215 
Q 2739 0 2170 0 
L 316 0 
z
M 1459 3738 
L 1459 341 
L 2185 341 
Q 2899 341 3231 759 
Q 3564 1178 3564 1937 
Q 3564 2495 3372 2897 
Q 3180 3300 2830 3519 
Q 2480 3738 2008 3738 
L 1459 3738 
z
" transform="scale(0.015625)"/>
       <path id="SitkaText-76" d="M 1590 -28 
L 472 2614 
Q 449 2668 411 2701 
Q 373 2734 327 2753 
L 97 2856 
L 97 3061 
L 1454 3061 
L 1454 2856 
L 1030 2716 
L 1718 1112 
L 1846 680 
L 1892 680 
L 2662 2631 
L 2267 2856 
L 2267 3061 
L 3408 3061 
L 3408 2856 
L 3166 2685 
Q 3120 2657 3077 2622 
Q 3035 2588 3015 2540 
L 2216 606 
L 1906 -28 
L 1590 -28 
z
" transform="scale(0.015625)"/>
       <path id="SitkaText-6c" d="M 188 0 
L 188 208 
L 617 321 
Q 666 336 698 368 
Q 731 401 731 461 
L 731 3834 
Q 731 3897 692 3931 
Q 654 3965 606 3985 
L 168 4147 
L 168 4349 
L 1297 4400 
L 1297 461 
Q 1297 401 1332 368 
Q 1368 336 1414 321 
L 1829 208 
L 1829 0 
L 188 0 
z
" transform="scale(0.015625)"/>
       <path id="SitkaText-75" d="M 1587 -60 
Q 1320 -60 1099 45 
Q 879 151 749 378 
Q 620 606 620 973 
L 620 2469 
Q 620 2532 587 2566 
Q 555 2600 501 2620 
L 165 2759 
L 165 2961 
L 1189 3118 
L 1189 1217 
Q 1189 953 1234 764 
Q 1280 575 1419 475 
Q 1559 375 1838 375 
Q 2096 375 2279 455 
Q 2463 535 2569 666 
L 2569 2469 
Q 2569 2532 2534 2561 
Q 2500 2591 2443 2614 
L 2111 2753 
L 2111 2955 
L 3137 3118 
L 3137 592 
Q 3137 529 3171 497 
Q 3206 466 3260 444 
L 3595 307 
L 3595 102 
L 2634 -57 
L 2620 -57 
L 2620 452 
L 2589 452 
Q 2389 193 2163 66 
Q 1937 -60 1587 -60 
z
" transform="scale(0.015625)"/>
      </defs>
      <use xlink:href="#SitkaText-46"/>
      <use xlink:href="#SitkaText-49" x="57.866653"/>
      <use xlink:href="#SitkaText-44" x="94.844421"/>
      <use xlink:href="#SitkaText-20" x="165.555527"/>
      <use xlink:href="#SitkaText-76" x="194.044403"/>
      <use xlink:href="#SitkaText-61" x="248.622177"/>
      <use xlink:href="#SitkaText-6c" x="302.577728"/>
      <use xlink:href="#SitkaText-75" x="334.088837"/>
      <use xlink:href="#SitkaText-65" x="393.422165"/>
     </g>
    </g>
   </g>
   <g id="line2d_16">
    <path d="M 207.654545 827.184677 
L 255.711962 786.448762 
L 303.769378 797.716213 
L 351.826794 831.636028 
L 399.884211 788.951158 
L 447.941627 743.369917 
L 495.999043 794.1193 
L 544.056459 851.032347 
L 592.113876 773.912031 
L 640.171292 725.596916 
L 688.228708 754.423553 
L 736.286124 736.737538 
L 784.343541 755.11052 
L 832.400957 783.571783 
L 880.458373 749.185121 
L 928.515789 785.259517 
L 976.573206 824.134419 
L 1024.630622 785.276189 
L 1072.688038 791.440178 
L 1120.745455 737.949871 
" clip-path="url(#pfd0f33cd68)" style="fill: none; stroke: #d76364; stroke-width: 4; stroke-linecap: square"/>
    <defs>
     <path id="m5092cc27ab" d="M 0 10 
C 2.652031 10 5.195799 8.946337 7.071068 7.071068 
C 8.946337 5.195799 10 2.652031 10 0 
C 10 -2.652031 8.946337 -5.195799 7.071068 -7.071068 
C 5.195799 -8.946337 2.652031 -10 0 -10 
C -2.652031 -10 -5.195799 -8.946337 -7.071068 -7.071068 
C -8.946337 -5.195799 -10 -2.652031 -10 0 
C -10 2.652031 -8.946337 5.195799 -7.071068 7.071068 
C -5.195799 8.946337 -2.652031 10 0 10 
z
" style="stroke: #d76364"/>
    </defs>
    <g clip-path="url(#pfd0f33cd68)">
     <use xlink:href="#m5092cc27ab" x="207.654545" y="827.184677" style="fill: #d76364; stroke: #d76364"/>
     <use xlink:href="#m5092cc27ab" x="255.711962" y="786.448762" style="fill: #d76364; stroke: #d76364"/>
     <use xlink:href="#m5092cc27ab" x="303.769378" y="797.716213" style="fill: #d76364; stroke: #d76364"/>
     <use xlink:href="#m5092cc27ab" x="351.826794" y="831.636028" style="fill: #d76364; stroke: #d76364"/>
     <use xlink:href="#m5092cc27ab" x="399.884211" y="788.951158" style="fill: #d76364; stroke: #d76364"/>
     <use xlink:href="#m5092cc27ab" x="447.941627" y="743.369917" style="fill: #d76364; stroke: #d76364"/>
     <use xlink:href="#m5092cc27ab" x="495.999043" y="794.1193" style="fill: #d76364; stroke: #d76364"/>
     <use xlink:href="#m5092cc27ab" x="544.056459" y="851.032347" style="fill: #d76364; stroke: #d76364"/>
     <use xlink:href="#m5092cc27ab" x="592.113876" y="773.912031" style="fill: #d76364; stroke: #d76364"/>
     <use xlink:href="#m5092cc27ab" x="640.171292" y="725.596916" style="fill: #d76364; stroke: #d76364"/>
     <use xlink:href="#m5092cc27ab" x="688.228708" y="754.423553" style="fill: #d76364; stroke: #d76364"/>
     <use xlink:href="#m5092cc27ab" x="736.286124" y="736.737538" style="fill: #d76364; stroke: #d76364"/>
     <use xlink:href="#m5092cc27ab" x="784.343541" y="755.11052" style="fill: #d76364; stroke: #d76364"/>
     <use xlink:href="#m5092cc27ab" x="832.400957" y="783.571783" style="fill: #d76364; stroke: #d76364"/>
     <use xlink:href="#m5092cc27ab" x="880.458373" y="749.185121" style="fill: #d76364; stroke: #d76364"/>
     <use xlink:href="#m5092cc27ab" x="928.515789" y="785.259517" style="fill: #d76364; stroke: #d76364"/>
     <use xlink:href="#m5092cc27ab" x="976.573206" y="824.134419" style="fill: #d76364; stroke: #d76364"/>
     <use xlink:href="#m5092cc27ab" x="1024.630622" y="785.276189" style="fill: #d76364; stroke: #d76364"/>
     <use xlink:href="#m5092cc27ab" x="1072.688038" y="791.440178" style="fill: #d76364; stroke: #d76364"/>
     <use xlink:href="#m5092cc27ab" x="1120.745455" y="737.949871" style="fill: #d76364; stroke: #d76364"/>
    </g>
   </g>
   <g id="line2d_17">
    <path d="M 207.654545 740.46221 
L 255.711962 565.097715 
L 303.769378 672.580093 
L 351.826794 604.236845 
L 399.884211 674.825183 
L 447.941627 657.865756 
L 495.999043 683.889624 
L 544.056459 684.178066 
L 592.113876 719.493154 
L 640.171292 647.778862 
L 688.228708 629.837762 
L 736.286124 644.708039 
L 784.343541 724.29125 
L 832.400957 620.868976 
L 880.458373 673.376501 
L 928.515789 703.132211 
L 976.573206 633.027638 
L 1024.630622 696.528901 
L 1072.688038 735.147847 
L 1120.745455 682.473709 
" clip-path="url(#pfd0f33cd68)" style="fill: none; stroke: #54b345; stroke-width: 4; stroke-linecap: square"/>
    <defs>
     <path id="m45e95e6961" d="M -0 10 
L 10 -10 
L -10 -10 
z
" style="stroke: #54b345; stroke-linejoin: miter"/>
    </defs>
    <g clip-path="url(#pfd0f33cd68)">
     <use xlink:href="#m45e95e6961" x="207.654545" y="740.46221" style="fill: #54b345; stroke: #54b345; stroke-linejoin: miter"/>
     <use xlink:href="#m45e95e6961" x="255.711962" y="565.097715" style="fill: #54b345; stroke: #54b345; stroke-linejoin: miter"/>
     <use xlink:href="#m45e95e6961" x="303.769378" y="672.580093" style="fill: #54b345; stroke: #54b345; stroke-linejoin: miter"/>
     <use xlink:href="#m45e95e6961" x="351.826794" y="604.236845" style="fill: #54b345; stroke: #54b345; stroke-linejoin: miter"/>
     <use xlink:href="#m45e95e6961" x="399.884211" y="674.825183" style="fill: #54b345; stroke: #54b345; stroke-linejoin: miter"/>
     <use xlink:href="#m45e95e6961" x="447.941627" y="657.865756" style="fill: #54b345; stroke: #54b345; stroke-linejoin: miter"/>
     <use xlink:href="#m45e95e6961" x="495.999043" y="683.889624" style="fill: #54b345; stroke: #54b345; stroke-linejoin: miter"/>
     <use xlink:href="#m45e95e6961" x="544.056459" y="684.178066" style="fill: #54b345; stroke: #54b345; stroke-linejoin: miter"/>
     <use xlink:href="#m45e95e6961" x="592.113876" y="719.493154" style="fill: #54b345; stroke: #54b345; stroke-linejoin: miter"/>
     <use xlink:href="#m45e95e6961" x="640.171292" y="647.778862" style="fill: #54b345; stroke: #54b345; stroke-linejoin: miter"/>
     <use xlink:href="#m45e95e6961" x="688.228708" y="629.837762" style="fill: #54b345; stroke: #54b345; stroke-linejoin: miter"/>
     <use xlink:href="#m45e95e6961" x="736.286124" y="644.708039" style="fill: #54b345; stroke: #54b345; stroke-linejoin: miter"/>
     <use xlink:href="#m45e95e6961" x="784.343541" y="724.29125" style="fill: #54b345; stroke: #54b345; stroke-linejoin: miter"/>
     <use xlink:href="#m45e95e6961" x="832.400957" y="620.868976" style="fill: #54b345; stroke: #54b345; stroke-linejoin: miter"/>
     <use xlink:href="#m45e95e6961" x="880.458373" y="673.376501" style="fill: #54b345; stroke: #54b345; stroke-linejoin: miter"/>
     <use xlink:href="#m45e95e6961" x="928.515789" y="703.132211" style="fill: #54b345; stroke: #54b345; stroke-linejoin: miter"/>
     <use xlink:href="#m45e95e6961" x="976.573206" y="633.027638" style="fill: #54b345; stroke: #54b345; stroke-linejoin: miter"/>
     <use xlink:href="#m45e95e6961" x="1024.630622" y="696.528901" style="fill: #54b345; stroke: #54b345; stroke-linejoin: miter"/>
     <use xlink:href="#m45e95e6961" x="1072.688038" y="735.147847" style="fill: #54b345; stroke: #54b345; stroke-linejoin: miter"/>
     <use xlink:href="#m45e95e6961" x="1120.745455" y="682.473709" style="fill: #54b345; stroke: #54b345; stroke-linejoin: miter"/>
    </g>
   </g>
   <g id="line2d_18">
    <path d="M 207.654545 703.733717 
L 255.711962 728.628168 
L 303.769378 583.933418 
L 351.826794 589.964438 
L 399.884211 669.114228 
L 447.941627 675.310413 
L 495.999043 730.795394 
L 544.056459 701.878014 
L 592.113876 649.274056 
L 640.171292 730.617831 
L 688.228708 632.93759 
L 736.286124 757.125566 
L 784.343541 719.434542 
L 832.400957 720.84243 
L 880.458373 748.897884 
L 928.515789 649.190677 
L 976.573206 742.885577 
L 1024.630622 643.655665 
L 1072.688038 713.742352 
L 1120.745455 625.977729 
" clip-path="url(#pfd0f33cd68)" style="fill: none; stroke: #2e74b0; stroke-width: 4; stroke-linecap: square"/>
    <defs>
     <path id="ma9ea8ef176" d="M -10 10 
L 10 10 
L 10 -10 
L -10 -10 
z
" style="stroke: #2e74b0; stroke-linejoin: miter"/>
    </defs>
    <g clip-path="url(#pfd0f33cd68)">
     <use xlink:href="#ma9ea8ef176" x="207.654545" y="703.733717" style="fill: #2e74b0; stroke: #2e74b0; stroke-linejoin: miter"/>
     <use xlink:href="#ma9ea8ef176" x="255.711962" y="728.628168" style="fill: #2e74b0; stroke: #2e74b0; stroke-linejoin: miter"/>
     <use xlink:href="#ma9ea8ef176" x="303.769378" y="583.933418" style="fill: #2e74b0; stroke: #2e74b0; stroke-linejoin: miter"/>
     <use xlink:href="#ma9ea8ef176" x="351.826794" y="589.964438" style="fill: #2e74b0; stroke: #2e74b0; stroke-linejoin: miter"/>
     <use xlink:href="#ma9ea8ef176" x="399.884211" y="669.114228" style="fill: #2e74b0; stroke: #2e74b0; stroke-linejoin: miter"/>
     <use xlink:href="#ma9ea8ef176" x="447.941627" y="675.310413" style="fill: #2e74b0; stroke: #2e74b0; stroke-linejoin: miter"/>
     <use xlink:href="#ma9ea8ef176" x="495.999043" y="730.795394" style="fill: #2e74b0; stroke: #2e74b0; stroke-linejoin: miter"/>
     <use xlink:href="#ma9ea8ef176" x="544.056459" y="701.878014" style="fill: #2e74b0; stroke: #2e74b0; stroke-linejoin: miter"/>
     <use xlink:href="#ma9ea8ef176" x="592.113876" y="649.274056" style="fill: #2e74b0; stroke: #2e74b0; stroke-linejoin: miter"/>
     <use xlink:href="#ma9ea8ef176" x="640.171292" y="730.617831" style="fill: #2e74b0; stroke: #2e74b0; stroke-linejoin: miter"/>
     <use xlink:href="#ma9ea8ef176" x="688.228708" y="632.93759" style="fill: #2e74b0; stroke: #2e74b0; stroke-linejoin: miter"/>
     <use xlink:href="#ma9ea8ef176" x="736.286124" y="757.125566" style="fill: #2e74b0; stroke: #2e74b0; stroke-linejoin: miter"/>
     <use xlink:href="#ma9ea8ef176" x="784.343541" y="719.434542" style="fill: #2e74b0; stroke: #2e74b0; stroke-linejoin: miter"/>
     <use xlink:href="#ma9ea8ef176" x="832.400957" y="720.84243" style="fill: #2e74b0; stroke: #2e74b0; stroke-linejoin: miter"/>
     <use xlink:href="#ma9ea8ef176" x="880.458373" y="748.897884" style="fill: #2e74b0; stroke: #2e74b0; stroke-linejoin: miter"/>
     <use xlink:href="#ma9ea8ef176" x="928.515789" y="649.190677" style="fill: #2e74b0; stroke: #2e74b0; stroke-linejoin: miter"/>
     <use xlink:href="#ma9ea8ef176" x="976.573206" y="742.885577" style="fill: #2e74b0; stroke: #2e74b0; stroke-linejoin: miter"/>
     <use xlink:href="#ma9ea8ef176" x="1024.630622" y="643.655665" style="fill: #2e74b0; stroke: #2e74b0; stroke-linejoin: miter"/>
     <use xlink:href="#ma9ea8ef176" x="1072.688038" y="713.742352" style="fill: #2e74b0; stroke: #2e74b0; stroke-linejoin: miter"/>
     <use xlink:href="#ma9ea8ef176" x="1120.745455" y="625.977729" style="fill: #2e74b0; stroke: #2e74b0; stroke-linejoin: miter"/>
    </g>
   </g>
   <g id="patch_3">
    <path d="M 162 961.2 
L 162 129.6 
" style="fill: none; stroke: #000000; stroke-width: 0.8; stroke-linejoin: miter; stroke-linecap: square"/>
   </g>
   <g id="patch_4">
    <path d="M 1166.4 961.2 
L 1166.4 129.6 
" style="fill: none; stroke: #000000; stroke-width: 0.8; stroke-linejoin: miter; stroke-linecap: square"/>
   </g>
   <g id="patch_5">
    <path d="M 162 961.2 
L 1166.4 961.2 
" style="fill: none; stroke: #000000; stroke-width: 0.8; stroke-linejoin: miter; stroke-linecap: square"/>
   </g>
   <g id="patch_6">
    <path d="M 162 129.6 
L 1166.4 129.6 
" style="fill: none; stroke: #000000; stroke-width: 0.8; stroke-linejoin: miter; stroke-linecap: square"/>
   </g>
   <g id="text_18">
    <!-- Contribution of the model 'Leonardo' -->
    <g transform="translate(229.067188 118.623438) scale(0.5 -0.5)">
     <defs>
      <path id="SitkaText-43" d="M 3649 910 
L 3795 910 
L 3795 532 
Q 3630 395 3399 251 
Q 3169 108 2893 10 
Q 2617 -88 2313 -88 
Q 1707 -88 1253 161 
Q 799 410 549 885 
Q 299 1360 299 2031 
Q 299 2679 562 3160 
Q 825 3641 1283 3904 
Q 1741 4167 2324 4167 
Q 2534 4167 2790 4131 
Q 3046 4096 3289 4047 
Q 3533 3999 3698 3957 
L 3698 2916 
L 3365 2916 
L 3254 3499 
Q 3246 3544 3203 3575 
Q 3160 3607 3112 3630 
Q 2933 3721 2725 3770 
Q 2517 3820 2273 3820 
Q 1690 3820 1323 3409 
Q 956 2998 956 2156 
Q 956 1266 1348 812 
Q 1741 358 2483 358 
Q 2731 358 2927 435 
Q 3123 512 3296 637 
Q 3470 762 3649 910 
z
" transform="scale(0.015625)"/>
      <path id="SitkaText-6f" d="M 1772 -71 
Q 1328 -71 995 122 
Q 663 316 478 674 
Q 293 1033 293 1527 
Q 293 1985 476 2349 
Q 660 2714 998 2927 
Q 1337 3140 1801 3140 
Q 2304 3140 2631 2917 
Q 2958 2694 3119 2330 
Q 3280 1966 3280 1539 
Q 3280 1089 3098 723 
Q 2916 358 2577 143 
Q 2239 -71 1772 -71 
z
M 1812 239 
Q 2059 239 2221 352 
Q 2384 466 2479 651 
Q 2574 836 2614 1053 
Q 2654 1271 2654 1479 
Q 2654 1818 2566 2128 
Q 2478 2438 2281 2634 
Q 2085 2830 1758 2830 
Q 1513 2830 1351 2718 
Q 1189 2606 1093 2422 
Q 998 2239 957 2022 
Q 916 1806 916 1601 
Q 916 1371 960 1132 
Q 1004 893 1106 691 
Q 1209 489 1381 364 
Q 1553 239 1812 239 
z
" transform="scale(0.015625)"/>
      <path id="SitkaText-6e" d="M 259 0 
L 259 208 
L 606 321 
Q 657 336 688 368 
Q 720 401 720 461 
L 720 2469 
Q 720 2532 685 2564 
Q 651 2597 595 2620 
L 262 2759 
L 262 2961 
L 1235 3118 
L 1235 2631 
L 1272 2631 
Q 1442 2853 1610 2961 
Q 1778 3069 1943 3104 
Q 2108 3140 2270 3140 
Q 2540 3140 2762 3033 
Q 2984 2927 3116 2699 
Q 3248 2472 3248 2108 
L 3248 472 
Q 3248 404 3281 370 
Q 3314 336 3362 321 
L 3669 208 
L 3669 0 
L 2273 0 
L 2273 208 
L 2563 321 
Q 2614 341 2648 372 
Q 2682 404 2682 472 
L 2682 1863 
Q 2682 2130 2634 2319 
Q 2586 2509 2443 2608 
Q 2301 2708 2020 2708 
Q 1835 2708 1628 2647 
Q 1422 2586 1286 2415 
L 1286 461 
Q 1286 401 1321 368 
Q 1357 336 1402 321 
L 1667 208 
L 1667 0 
L 259 0 
z
" transform="scale(0.015625)"/>
      <path id="SitkaText-72" d="M 270 0 
L 270 208 
L 620 321 
Q 669 336 701 368 
Q 734 401 734 461 
L 734 2435 
Q 734 2509 692 2550 
Q 651 2591 603 2611 
L 250 2759 
L 250 2961 
L 1257 3118 
L 1257 2455 
L 1286 2455 
Q 1459 2702 1610 2853 
Q 1761 3004 1910 3072 
Q 2059 3140 2219 3140 
Q 2358 3140 2497 3109 
Q 2637 3078 2751 2978 
L 2751 2270 
L 2404 2270 
L 2321 2489 
Q 2293 2560 2197 2602 
Q 2102 2645 2008 2645 
Q 1846 2645 1719 2572 
Q 1593 2500 1492 2392 
Q 1391 2284 1300 2176 
L 1300 461 
Q 1300 350 1414 321 
L 1855 208 
L 1855 0 
L 270 0 
z
" transform="scale(0.015625)"/>
      <path id="SitkaText-69" d="M 1024 3661 
Q 916 3661 822 3705 
Q 728 3749 671 3833 
Q 614 3917 614 4031 
Q 614 4213 736 4311 
Q 859 4409 1024 4409 
Q 1215 4409 1333 4318 
Q 1451 4227 1451 4053 
Q 1451 3931 1395 3843 
Q 1340 3755 1243 3708 
Q 1146 3661 1024 3661 
z
M 245 0 
L 245 208 
L 674 321 
Q 725 336 758 368 
Q 791 401 791 461 
L 791 2443 
Q 791 2506 757 2538 
Q 723 2571 666 2591 
L 250 2731 
L 250 2935 
L 1360 3089 
L 1360 461 
Q 1360 401 1392 367 
Q 1425 333 1471 321 
L 1897 208 
L 1897 0 
L 245 0 
z
" transform="scale(0.015625)"/>
      <path id="SitkaText-62" d="M 1852 -71 
Q 1522 -71 1200 -5 
Q 879 60 600 199 
L 600 3834 
Q 600 3897 563 3931 
Q 526 3965 475 3985 
L 114 4147 
L 114 4349 
L 1166 4400 
L 1166 2773 
L 1166 2611 
Q 1331 2856 1521 2968 
Q 1712 3081 1883 3110 
Q 2054 3140 2159 3140 
Q 2540 3140 2810 2946 
Q 3081 2753 3224 2419 
Q 3368 2085 3368 1655 
Q 3368 1183 3191 790 
Q 3015 398 2676 163 
Q 2338 -71 1852 -71 
z
M 1821 239 
Q 2145 239 2355 407 
Q 2566 575 2667 855 
Q 2768 1135 2768 1465 
Q 2768 1823 2672 2107 
Q 2577 2392 2372 2557 
Q 2168 2722 1840 2722 
Q 1695 2722 1497 2651 
Q 1300 2580 1166 2395 
L 1166 501 
Q 1237 421 1362 362 
Q 1488 304 1616 271 
Q 1744 239 1821 239 
z
" transform="scale(0.015625)"/>
      <path id="SitkaText-66" d="M 259 0 
L 259 208 
L 651 321 
Q 703 336 734 368 
Q 765 401 765 461 
L 765 2597 
L 202 2597 
L 213 2921 
L 774 2921 
Q 805 3482 964 3816 
Q 1124 4150 1391 4299 
Q 1658 4449 2011 4449 
Q 2111 4449 2283 4423 
Q 2455 4398 2563 4366 
L 2543 3846 
L 2432 3846 
Q 2347 3880 2253 3918 
Q 2159 3957 2051 3984 
Q 1943 4011 1812 4011 
Q 1647 4011 1547 3974 
Q 1448 3937 1402 3871 
Q 1363 3812 1347 3561 
Q 1331 3311 1328 2921 
L 2193 2921 
L 2179 2597 
L 1331 2597 
L 1331 461 
Q 1331 401 1366 367 
Q 1402 333 1448 321 
L 1906 208 
L 1906 0 
L 259 0 
z
" transform="scale(0.015625)"/>
      <path id="SitkaText-64" d="M 1502 -60 
Q 1124 -60 853 133 
Q 583 327 438 662 
Q 293 998 293 1422 
Q 293 1897 468 2287 
Q 643 2677 968 2908 
Q 1294 3140 1747 3140 
Q 2017 3140 2200 3049 
Q 2384 2958 2497 2842 
L 2497 2975 
L 2497 3834 
Q 2497 3897 2464 3931 
Q 2432 3965 2375 3985 
L 1946 4147 
L 1946 4349 
L 3064 4400 
L 3064 592 
Q 3064 529 3100 497 
Q 3137 466 3192 444 
L 3527 307 
L 3527 102 
L 2563 -57 
L 2549 -57 
L 2549 461 
L 2512 461 
Q 2344 213 2150 103 
Q 1957 -6 1783 -33 
Q 1610 -60 1502 -60 
z
M 1818 358 
Q 1917 358 2048 389 
Q 2179 421 2301 490 
Q 2424 560 2497 671 
L 2497 2631 
Q 2424 2682 2297 2713 
Q 2170 2745 2042 2760 
Q 1914 2776 1835 2776 
Q 1516 2776 1307 2619 
Q 1098 2463 997 2201 
Q 896 1940 896 1627 
Q 896 1266 991 978 
Q 1087 691 1290 524 
Q 1493 358 1818 358 
z
" transform="scale(0.015625)"/>
      <path id="SitkaText-27" d="M 1061 2557 
L 785 2557 
L 555 4295 
L 555 4369 
L 1291 4369 
L 1291 4295 
L 1061 2557 
z
" transform="scale(0.015625)"/>
      <path id="SitkaText-4c" d="M 316 0 
L 316 213 
L 754 353 
Q 797 367 829 399 
Q 862 432 862 495 
L 862 3590 
Q 862 3649 832 3680 
Q 802 3712 754 3726 
L 316 3871 
L 316 4079 
L 2011 4079 
L 2011 3871 
L 1570 3726 
Q 1525 3712 1492 3679 
Q 1459 3647 1459 3590 
L 1459 347 
L 2927 347 
Q 2975 347 3009 379 
Q 3044 412 3052 466 
L 3177 1303 
L 3521 1303 
L 3521 0 
L 316 0 
z
" transform="scale(0.015625)"/>
     </defs>
     <use xlink:href="#SitkaText-43"/>
     <use xlink:href="#SitkaText-6f" x="63.377762"/>
     <use xlink:href="#SitkaText-6e" x="119.155533"/>
     <use xlink:href="#SitkaText-74" x="179.644409"/>
     <use xlink:href="#SitkaText-72" x="217.59996"/>
     <use xlink:href="#SitkaText-69" x="263.2444"/>
     <use xlink:href="#SitkaText-62" x="295.644394"/>
     <use xlink:href="#SitkaText-75" x="352.844391"/>
     <use xlink:href="#SitkaText-74" x="412.177719"/>
     <use xlink:href="#SitkaText-69" x="450.13327"/>
     <use xlink:href="#SitkaText-6f" x="482.533264"/>
     <use xlink:href="#SitkaText-6e" x="538.311035"/>
     <use xlink:href="#SitkaText-20" x="598.799911"/>
     <use xlink:href="#SitkaText-6f" x="627.288788"/>
     <use xlink:href="#SitkaText-66" x="683.066559"/>
     <use xlink:href="#SitkaText-20" x="720.177658"/>
     <use xlink:href="#SitkaText-74" x="748.666534"/>
     <use xlink:href="#SitkaText-68" x="786.622086"/>
     <use xlink:href="#SitkaText-65" x="846.310959"/>
     <use xlink:href="#SitkaText-20" x="898.444275"/>
     <use xlink:href="#SitkaText-6d" x="926.933151"/>
     <use xlink:href="#SitkaText-6f" x="1016.622025"/>
     <use xlink:href="#SitkaText-64" x="1072.399796"/>
     <use xlink:href="#SitkaText-65" x="1130.622009"/>
     <use xlink:href="#SitkaText-6c" x="1182.755325"/>
     <use xlink:href="#SitkaText-20" x="1214.266434"/>
     <use xlink:href="#SitkaText-27" x="1242.75531"/>
     <use xlink:href="#SitkaText-4c" x="1271.599747"/>
     <use xlink:href="#SitkaText-65" x="1329.688629"/>
     <use xlink:href="#SitkaText-6f" x="1381.821945"/>
     <use xlink:href="#SitkaText-6e" x="1437.599716"/>
     <use xlink:href="#SitkaText-61" x="1498.088593"/>
     <use xlink:href="#SitkaText-72" x="1552.044144"/>
     <use xlink:href="#SitkaText-64" x="1597.688583"/>
     <use xlink:href="#SitkaText-6f" x="1655.910797"/>
     <use xlink:href="#SitkaText-27" x="1711.688568"/>
    </g>
   </g>
   <g id="legend_1">
    <g id="patch_7">
     <path d="M 522.232812 301.592188 
L 1142.6 301.592188 
Q 1149.4 301.592188 1149.4 294.792188 
L 1149.4 153.4 
Q 1149.4 146.6 1142.6 146.6 
L 522.232812 146.6 
Q 515.432812 146.6 515.432812 153.4 
L 515.432812 294.792188 
Q 515.432812 301.592188 522.232812 301.592188 
z
" style="fill: #ffffff; opacity: 0.8; stroke: #cccccc; stroke-linejoin: miter"/>
    </g>
    <g id="line2d_19">
     <path d="M 529.032812 172.1 
L 563.032812 172.1 
L 597.032812 172.1 
" style="fill: none; stroke: #d76364; stroke-width: 4; stroke-linecap: square"/>
     <g>
      <use xlink:href="#m5092cc27ab" x="563.032812" y="172.1" style="fill: #d76364; stroke: #d76364"/>
     </g>
    </g>
    <g id="text_19">
     <!-- All Models Alliances -->
     <g transform="translate(624.232813 184) scale(0.34 -0.34)">
      <defs>
       <path id="SitkaText-41" d="M -3 0 
L -3 213 
L 287 341 
Q 393 390 432 498 
L 1590 3462 
L 1926 4142 
L 2247 4142 
L 3684 489 
Q 3704 444 3739 397 
Q 3775 350 3820 333 
L 4122 213 
L 4122 0 
L 2614 0 
L 2614 213 
L 3092 378 
L 2074 2987 
L 1963 3371 
L 1914 3371 
L 791 393 
L 1274 213 
L 1274 0 
L -3 0 
z
M 1135 1431 
L 1274 1826 
L 2586 1826 
L 2725 1431 
L 1135 1431 
z
" transform="scale(0.015625)"/>
       <path id="SitkaText-4d" d="M 316 0 
L 316 213 
L 754 373 
Q 799 387 830 419 
Q 862 452 862 512 
L 862 3590 
Q 862 3649 832 3680 
Q 802 3712 754 3726 
L 316 3871 
L 316 4079 
L 1781 4079 
L 2734 1385 
L 2876 890 
L 2921 890 
L 4022 4079 
L 5467 4079 
L 5467 3871 
L 5035 3726 
Q 4989 3712 4955 3679 
Q 4921 3647 4921 3590 
L 4921 495 
Q 4921 432 4952 401 
Q 4984 370 5035 353 
L 5467 213 
L 5467 0 
L 3783 0 
L 3783 213 
L 4216 353 
Q 4264 367 4296 399 
Q 4329 432 4329 495 
L 4329 3769 
L 4275 3769 
L 4142 3348 
L 3172 631 
L 2901 0 
L 2611 0 
L 1425 3345 
L 1294 3769 
L 1249 3769 
L 1249 512 
Q 1249 449 1280 419 
Q 1311 390 1357 373 
L 1786 213 
L 1786 0 
L 316 0 
z
" transform="scale(0.015625)"/>
      </defs>
      <use xlink:href="#SitkaText-41"/>
      <use xlink:href="#SitkaText-6c" x="64.311096"/>
      <use xlink:href="#SitkaText-6c" x="95.822205"/>
      <use xlink:href="#SitkaText-20" x="127.333313"/>
      <use xlink:href="#SitkaText-4d" x="155.822189"/>
      <use xlink:href="#SitkaText-6f" x="246.177734"/>
      <use xlink:href="#SitkaText-64" x="301.955505"/>
      <use xlink:href="#SitkaText-65" x="360.177719"/>
      <use xlink:href="#SitkaText-6c" x="412.311035"/>
      <use xlink:href="#SitkaText-73" x="443.822144"/>
      <use xlink:href="#SitkaText-20" x="490.533249"/>
      <use xlink:href="#SitkaText-41" x="519.022125"/>
      <use xlink:href="#SitkaText-6c" x="583.333221"/>
      <use xlink:href="#SitkaText-6c" x="614.84433"/>
      <use xlink:href="#SitkaText-69" x="646.355438"/>
      <use xlink:href="#SitkaText-61" x="678.755432"/>
      <use xlink:href="#SitkaText-6e" x="732.710983"/>
      <use xlink:href="#SitkaText-63" x="793.19986"/>
      <use xlink:href="#SitkaText-65" x="841.110962"/>
      <use xlink:href="#SitkaText-73" x="893.244278"/>
     </g>
    </g>
    <g id="line2d_20">
     <path d="M 529.032812 220.364063 
L 563.032812 220.364063 
L 597.032812 220.364063 
" style="fill: none; stroke: #54b345; stroke-width: 4; stroke-linecap: square"/>
     <g>
      <use xlink:href="#m45e95e6961" x="563.032812" y="220.364063" style="fill: #54b345; stroke: #54b345; stroke-linejoin: miter"/>
     </g>
    </g>
    <g id="text_20">
     <!-- NoLeonardo Alliances(reg seed) -->
     <g transform="translate(624.232813 232.264063) scale(0.34 -0.34)">
      <defs>
       <path id="SitkaText-4e" d="M 316 0 
L 316 213 
L 754 373 
Q 802 390 832 421 
Q 862 452 862 512 
L 862 3587 
Q 862 3647 830 3678 
Q 799 3709 754 3723 
L 299 3871 
L 299 4079 
L 1468 4079 
L 3442 1266 
L 3661 899 
L 3706 899 
L 3706 3575 
Q 3706 3635 3672 3662 
Q 3638 3689 3593 3706 
L 3160 3871 
L 3160 4079 
L 4631 4079 
L 4631 3871 
L 4196 3706 
Q 4159 3692 4122 3662 
Q 4085 3632 4085 3575 
L 4085 631 
L 3999 -28 
L 3661 -28 
L 1513 3021 
L 1294 3393 
L 1249 3393 
L 1249 512 
Q 1249 449 1283 418 
Q 1317 387 1357 373 
L 1786 213 
L 1786 0 
L 316 0 
z
" transform="scale(0.015625)"/>
       <path id="SitkaText-28" d="M 2296 -1001 
Q 1778 -936 1385 -609 
Q 993 -282 772 293 
Q 552 868 552 1670 
Q 552 2472 766 3053 
Q 981 3635 1373 3972 
Q 1766 4309 2296 4380 
L 2296 4059 
Q 1886 3979 1628 3672 
Q 1371 3365 1250 2856 
Q 1129 2347 1129 1661 
Q 1129 643 1412 31 
Q 1695 -580 2296 -686 
L 2296 -1001 
z
" transform="scale(0.015625)"/>
       <path id="SitkaText-29" d="M 430 -1001 
L 430 -686 
Q 1030 -580 1313 31 
Q 1596 643 1596 1661 
Q 1596 2688 1320 3314 
Q 1044 3940 430 4059 
L 430 4380 
Q 959 4309 1350 3972 
Q 1741 3635 1957 3053 
Q 2173 2472 2173 1670 
Q 2173 868 1952 293 
Q 1732 -282 1339 -609 
Q 947 -936 430 -1001 
z
" transform="scale(0.015625)"/>
      </defs>
      <use xlink:href="#SitkaText-4e"/>
      <use xlink:href="#SitkaText-6f" x="76.355545"/>
      <use xlink:href="#SitkaText-4c" x="132.133316"/>
      <use xlink:href="#SitkaText-65" x="190.222198"/>
      <use xlink:href="#SitkaText-6f" x="242.355515"/>
      <use xlink:href="#SitkaText-6e" x="298.133286"/>
      <use xlink:href="#SitkaText-61" x="358.622162"/>
      <use xlink:href="#SitkaText-72" x="412.577713"/>
      <use xlink:href="#SitkaText-64" x="458.222153"/>
      <use xlink:href="#SitkaText-6f" x="516.444366"/>
      <use xlink:href="#SitkaText-20" x="572.222137"/>
      <use xlink:href="#SitkaText-41" x="600.711014"/>
      <use xlink:href="#SitkaText-6c" x="665.02211"/>
      <use xlink:href="#SitkaText-6c" x="696.533218"/>
      <use xlink:href="#SitkaText-69" x="728.044327"/>
      <use xlink:href="#SitkaText-61" x="760.444321"/>
      <use xlink:href="#SitkaText-6e" x="814.399872"/>
      <use xlink:href="#SitkaText-63" x="874.888748"/>
      <use xlink:href="#SitkaText-65" x="922.79985"/>
      <use xlink:href="#SitkaText-73" x="974.933167"/>
      <use xlink:href="#SitkaText-28" x="1021.644272"/>
      <use xlink:href="#SitkaText-72" x="1064.222046"/>
      <use xlink:href="#SitkaText-65" x="1109.866486"/>
      <use xlink:href="#SitkaText-67" x="1161.999802"/>
      <use xlink:href="#SitkaText-20" x="1216.888687"/>
      <use xlink:href="#SitkaText-73" x="1245.377563"/>
      <use xlink:href="#SitkaText-65" x="1292.088669"/>
      <use xlink:href="#SitkaText-65" x="1344.221985"/>
      <use xlink:href="#SitkaText-64" x="1396.355301"/>
      <use xlink:href="#SitkaText-29" x="1454.577515"/>
     </g>
    </g>
    <g id="line2d_21">
     <path d="M 529.032812 268.628125 
L 563.032812 268.628125 
L 597.032812 268.628125 
" style="fill: none; stroke: #2e74b0; stroke-width: 4; stroke-linecap: square"/>
     <g>
      <use xlink:href="#ma9ea8ef176" x="563.032812" y="268.628125" style="fill: #2e74b0; stroke: #2e74b0; stroke-linejoin: miter"/>
     </g>
    </g>
    <g id="text_21">
     <!-- NoLeonardo Alliances(ran seed) -->
     <g transform="translate(624.232813 280.528125) scale(0.34 -0.34)">
      <use xlink:href="#SitkaText-4e"/>
      <use xlink:href="#SitkaText-6f" x="76.355545"/>
      <use xlink:href="#SitkaText-4c" x="132.133316"/>
      <use xlink:href="#SitkaText-65" x="190.222198"/>
      <use xlink:href="#SitkaText-6f" x="242.355515"/>
      <use xlink:href="#SitkaText-6e" x="298.133286"/>
      <use xlink:href="#SitkaText-61" x="358.622162"/>
      <use xlink:href="#SitkaText-72" x="412.577713"/>
      <use xlink:href="#SitkaText-64" x="458.222153"/>
      <use xlink:href="#SitkaText-6f" x="516.444366"/>
      <use xlink:href="#SitkaText-20" x="572.222137"/>
      <use xlink:href="#SitkaText-41" x="600.711014"/>
      <use xlink:href="#SitkaText-6c" x="665.02211"/>
      <use xlink:href="#SitkaText-6c" x="696.533218"/>
      <use xlink:href="#SitkaText-69" x="728.044327"/>
      <use xlink:href="#SitkaText-61" x="760.444321"/>
      <use xlink:href="#SitkaText-6e" x="814.399872"/>
      <use xlink:href="#SitkaText-63" x="874.888748"/>
      <use xlink:href="#SitkaText-65" x="922.79985"/>
      <use xlink:href="#SitkaText-73" x="974.933167"/>
      <use xlink:href="#SitkaText-28" x="1021.644272"/>
      <use xlink:href="#SitkaText-72" x="1064.222046"/>
      <use xlink:href="#SitkaText-61" x="1109.866486"/>
      <use xlink:href="#SitkaText-6e" x="1163.822037"/>
      <use xlink:href="#SitkaText-20" x="1224.310913"/>
      <use xlink:href="#SitkaText-73" x="1252.799789"/>
      <use xlink:href="#SitkaText-65" x="1299.510895"/>
      <use xlink:href="#SitkaText-65" x="1351.644211"/>
      <use xlink:href="#SitkaText-64" x="1403.777527"/>
      <use xlink:href="#SitkaText-29" x="1461.999741"/>
     </g>
    </g>
   </g>
  </g>
 </g>
 <defs>
  <clipPath id="pfd0f33cd68">
   <rect x="162" y="129.6" width="1004.4" height="831.6"/>
  </clipPath>
 </defs>
</svg>
